<svg viewBox="0 0 30 30" xmlns="http://www.w3.org/2000/svg">
    <path fill-rule="evenodd" clip-rule="evenodd" d="M21 0H9C4.02944 0 0 4.02944 0 9V21C0 25.9706 4.02944 30 9 30H21C25.9706 30 30 25.9706 30 21V9C30 4.02944 25.9706 0 21 0ZM2.99998 9.00001C2.99998 5.6863 5.68627 3.00001 8.99998 3.00001H21C24.3137 3.00001 27 5.6863 27 9.00001V21C27 24.3137 24.3137 27 21 27H8.99998C5.68627 27 2.99998 24.3137 2.99998 21V9.00001ZM15 22.5C10.8578 22.5 7.49998 19.1421 7.49998 15C7.49998 10.8579 10.8578 7.50001 15 7.50001C19.1421 7.50001 22.5 10.8579 22.5 15C22.5 19.1421 19.1421 22.5 15 22.5ZM15 19.5C17.4853 19.5 19.5 17.4853 19.5 15C19.5 12.5147 17.4853 10.5 15 10.5C12.5147 10.5 10.5 12.5147 10.5 15C10.5 17.4853 12.5147 19.5 15 19.5ZM24 7.49999C24 8.32842 23.3284 8.99999 22.5 8.99999C21.6716 8.99999 21 8.32842 21 7.49999C21 6.67156 21.6716 5.99999 22.5 5.99999C23.3284 5.99999 24 6.67156 24 7.49999Z" />
</svg>
