<svg viewBox="0 0 30 31" xmlns="http://www.w3.org/2000/svg">
    <path d="M0 30.2371C0.0169982 30.1699 0.02609 30.1185 0.0422976 30.0699C0.235998 29.4914 0.430095 28.9131 0.624586 28.3349C1.26551 26.4293 1.90762 24.524 2.55092 22.6192C2.5787 22.5492 2.58905 22.4735 2.58106 22.3986C2.57307 22.3238 2.54699 22.252 2.50506 22.1895C1.4754 20.4378 0.825551 18.4892 0.597705 16.4701C0.531657 15.8974 0.497477 15.3215 0.49532 14.745C0.49532 14.3102 0.522201 13.8753 0.55936 13.4405C0.685885 11.9551 1.04166 10.4983 1.61404 9.12177C2.4557 7.0903 3.7396 5.272 5.37236 3.79912C7.00511 2.32624 8.94564 1.23584 11.0528 0.607241C11.7143 0.410532 12.3891 0.261774 13.072 0.162125C13.5622 0.0856481 14.0566 0.0397038 14.5525 0.0245576C14.7869 0.0198139 15.0213 -0.00113751 15.2557 4.84122e-05C15.6905 0.00242026 16.1254 0.0293011 16.5602 0.0644834C17.6295 0.151713 18.6853 0.361277 19.7069 0.689069C22.0305 1.43198 24.0491 2.67351 25.7626 4.41366C27.7072 6.39494 28.9949 8.73951 29.6255 11.4474C29.7394 11.9438 29.8265 12.4461 29.8864 12.9519C29.9845 13.7309 30.0192 14.5166 29.99 15.3012C29.9742 15.723 29.9386 16.144 29.888 16.5642C29.7851 17.4231 29.6057 18.2711 29.352 19.0981C28.5734 21.6358 27.1247 23.9165 25.1587 25.7C23.1926 27.4834 20.7819 28.7036 18.1806 29.2319C17.6817 29.3334 17.1776 29.4072 16.6705 29.4528C16.1289 29.5011 15.5874 29.5382 15.0442 29.5212C14.6426 29.509 14.2413 29.4793 13.8401 29.4505C13.2055 29.4001 12.5756 29.3012 11.9561 29.1548C10.6935 28.8673 9.47499 28.4122 8.33308 27.8016C8.0959 27.6743 8.15124 27.6684 7.86227 27.7621C5.33573 28.5683 2.80985 29.3756 0.284621 30.1842C0.202002 30.2102 0.123731 30.2541 0 30.2371ZM3.76412 26.5608C3.84318 26.5378 3.90761 26.5212 3.97047 26.5015C4.55737 26.3149 5.1444 26.1276 5.73156 25.9397C6.59333 25.665 7.4555 25.3922 8.31529 25.1131C8.42875 25.0764 8.52244 25.0772 8.61494 25.1527C8.64208 25.1723 8.67033 25.1904 8.69953 25.2068C9.58469 25.7658 10.5379 26.2089 11.5359 26.5252C12.1934 26.735 12.868 26.8872 13.5519 26.9802C13.9892 27.0435 14.4298 27.0807 14.8715 27.0917C15.2668 27.0968 15.6621 27.1023 16.0574 27.0592C16.3772 27.0245 16.699 27.009 17.0168 26.964C17.7268 26.8627 18.4262 26.698 19.1068 26.4718C20.7993 25.9086 22.3504 24.9867 23.6541 23.7692C24.9579 22.5517 25.9835 21.0673 26.6611 19.4172C27.1799 18.1558 27.4827 16.8161 27.5569 15.4542C27.6053 14.6432 27.5708 13.8294 27.4541 13.0254C27.3671 12.415 27.235 11.8118 27.0588 11.2209C26.2716 8.64213 24.805 6.53738 22.659 4.90661C20.6714 3.39969 18.4178 2.58655 15.9293 2.43554C15.0854 2.38427 14.2383 2.42403 13.4029 2.55413C12.7472 2.65494 12.1006 2.80762 11.4691 3.01071C9.06767 3.78752 6.96174 5.28107 5.43452 7.29048C3.90731 9.2999 3.03205 11.7288 2.92646 14.2505C2.90169 14.8541 2.92283 15.4587 2.98971 16.059C3.20301 18.1239 3.9398 20.1003 5.1303 21.8009C5.1722 21.861 5.21134 21.9226 5.25087 21.9819C5.23031 22.0487 5.21411 22.1064 5.19513 22.1634L4.50927 24.202C4.27209 24.9072 4.0349 25.6126 3.79772 26.318C3.77558 26.3868 3.73961 26.4532 3.76333 26.56L3.76412 26.5608Z" />
    <path d="M10.3649 7.55238C10.4914 7.56503 10.6175 7.58124 10.7444 7.59191C10.8781 7.6014 11.0121 7.61089 11.1457 7.60812C11.2536 7.60109 11.3612 7.62551 11.4555 7.67842C11.5498 7.73132 11.6267 7.81044 11.677 7.90618C11.7467 8.02831 11.8067 8.15573 11.8564 8.28726C12.1652 9.10911 12.4696 9.93253 12.7763 10.7548C12.8253 10.8868 12.8787 11.0169 12.9301 11.1481C12.9746 11.2534 12.9942 11.3675 12.9873 11.4816C12.9805 11.5957 12.9473 11.7067 12.8906 11.8059C12.7739 12.0329 12.6277 12.2434 12.4557 12.4321C12.2525 12.6459 12.0529 12.8633 11.8485 13.076C11.6212 13.3132 11.5853 13.4954 11.7406 13.7836C12.6324 15.4396 13.8302 16.8152 15.445 17.8031C15.7249 17.9743 16.0194 18.1213 16.3088 18.2775C16.4566 18.3565 16.608 18.4281 16.759 18.5008C16.8249 18.5339 16.8929 18.5624 16.9626 18.5862C17.0516 18.6182 17.1477 18.625 17.2403 18.6059C17.333 18.5868 17.4185 18.5425 17.4876 18.4779C17.5429 18.4293 17.5947 18.3763 17.6457 18.3225C18.0517 17.8849 18.4561 17.4457 18.8202 16.9718C18.8568 16.9236 18.8977 16.8789 18.9423 16.8382C18.9935 16.7894 19.056 16.7541 19.1241 16.7354C19.1923 16.7167 19.264 16.7152 19.3329 16.731C19.484 16.763 19.6302 16.8149 19.7677 16.8852C20.0199 17.0101 20.2721 17.1346 20.5188 17.2667C21.1813 17.619 21.843 17.9735 22.5036 18.33C22.5685 18.3648 22.6305 18.4048 22.6918 18.4455C22.7484 18.4819 22.7949 18.5321 22.8269 18.5913C22.8589 18.6506 22.8754 18.7169 22.8748 18.7843C22.8805 18.9922 22.8634 19.2002 22.8238 19.4045C22.7716 19.6949 22.6937 19.9801 22.591 20.2568C22.5182 20.4589 22.407 20.645 22.2637 20.8051C22.22 20.8559 22.1737 20.9045 22.1249 20.9505C21.5676 21.4644 20.9264 21.8273 20.1879 22.0064C20.0389 22.0424 19.8839 22.0511 19.7318 22.0736C19.6258 22.0894 19.5195 22.1033 19.4155 22.1246C19.1862 22.1709 18.9601 22.1345 18.7364 22.0961C18.2727 22.0171 17.8272 21.8661 17.3876 21.7056C16.7199 21.4625 16.0641 21.1917 15.4158 20.8999C14.4916 20.4865 13.6543 19.9338 12.8787 19.2859C11.822 18.4036 10.9148 17.3841 10.1096 16.2705C9.66564 15.6562 9.25729 15.0174 8.86831 14.3671C8.49837 13.751 8.2178 13.0855 8.035 12.3906C7.89364 11.8577 7.84773 11.304 7.89941 10.7552C7.98954 9.81078 8.3465 8.98023 9.0039 8.28766C9.10984 8.17578 9.21815 8.06589 9.33003 7.95955C9.6186 7.68402 9.95817 7.5338 10.3649 7.55238Z" />
</svg>
